# xmcd CD database file generated by OrangeCD 6.4
#
# Track frame offsets:
#	150
#	12411
#	26561
#	41810
#	58590
#	77755
#	87849
#	102393
#	128176
#	142296
#	156254
#	176543
#
# Disc length: 2591 seconds
#
# Revision: 1
# Processed by: cddbd v1.5.2PL0 Copyright (c) Steve Scherf et al.
# Submitted via: OrangeCD 6.4
#
DISCID=a20a1d0c
DTITLE=Elam McKnight and Keith Carter - The Last Country Store
DYEAR=2005
DGENRE=Blues
TTITLE0=Ain't Gonna Plow No More
TTITLE1=The Last Country Store
TTITLE2=Going Away (Featuring Jimbo Mathus )
TTITLE3=Cadillac Women
TTITLE4=Leaving Five Points
TTITLE5=Mamma Killed a Chicken
TTITLE6=Whose Gonna Be Your
TTITLE7=Another Man Done Gone
TTITLE8=Little Boy
TTITLE9=Pig Meat (Fuller )
TTITLE10=Me and the Devil (R.Johnson )
TTITLE11=Going Away Acoustic
EXTD=Big Black End
EXTT0=
EXTT1=
EXTT2=
EXTT3=
EXTT4=
EXTT5=
EXTT6=
EXTT7=
EXTT8=
EXTT9=
EXTT10=
EXTT11=
PLAYORDER=
